# xmcd
#
# Track frame offsets:
# 150
# 10755
# 26345
# 38895
# 59635
# 72432
# 97077
# 112677
# 131660
# 149810
# 170742
# 186652
# 205432
# 215755
# 228915
#
# Disc length: 3115 seconds
#
#
# Revision: 0
# Processed by: cddbd v1.5.2PL0 Copyright (c) Steve Scherf et al.
# Submitted via: FreeRIP 2.941 
#
DISCID=eb0c290f
DTITLE=The Pogues - If I Should Fall From Grace With God
DYEAR=1988
DGENRE=Alternative
TTITLE0=if I should fall from grace with god
TTITLE1=turkish song of the damned
TTITLE2=bottle of smoke
TTITLE3=fairytale of new york
TTITLE4=metropolis
TTITLE5=thousands are sailing
TTITLE6=south australia
TTITLE7=fiesta
TTITLE8=medley
TTITLE9=streets of sorrow - birmingham six
TTITLE10=lullaby of london
TTITLE11=the bottle march medley
TTITLE12=sit down by the fire
TTITLE13=the broad majestic shannon
TTITLE14=worms
EXTD=
EXTT0=
EXTT1=
EXTT2=
EXTT3=
EXTT4=
EXTT5=
EXTT6=
EXTT7=
EXTT8=
EXTT9=
EXTT10=
EXTT11=
EXTT12=
EXTT13=
EXTT14=
PLAYORDER=
